<svg width="44" height="44" viewBox="0 0 44 44" fill="none" xmlns="http://www.w3.org/2000/svg">
<path d="M0 8C0 3.58172 3.58172 0 8 0H36C40.4183 0 44 3.58172 44 8V36C44 40.4183 40.4183 44 36 44H8C3.58172 44 0 40.4183 0 36V8Z" fill="#E5E4E2"/>
<path d="M27 30.5H17C14 30.5 12 29 12 25.5V18.5C12 15 14 13.5 17 13.5H27C30 13.5 32 15 32 18.5V25.5C32 29 30 30.5 27 30.5Z" stroke="#1A1A18" stroke-width="1.5" stroke-miterlimit="10" stroke-linecap="round" stroke-linejoin="round"/>
<path d="M27 19L23.87 21.5C22.84 22.32 21.15 22.32 20.12 21.5L17 19" stroke="#1A1A18" stroke-width="1.5" stroke-miterlimit="10" stroke-linecap="round" stroke-linejoin="round"/>
</svg>
