<svg width="55" height="54" viewBox="0 0 55 54" fill="none" xmlns="http://www.w3.org/2000/svg">
<rect x="0.5" width="54" height="54" rx="7" fill="#F07C00"/>
<path d="M17.5701 19.5999C18.3701 16.1399 23.5801 16.1399 24.3701 19.5999C24.8401 21.6299 23.5501 23.3499 22.4301 24.4199C21.6101 25.1999 20.3201 25.1899 19.5001 24.4199C18.3901 23.3499 17.1001 21.6299 17.5701 19.5999Z" stroke="white" stroke-width="1.5"/>
<path d="M30.57 31.5999C31.37 28.1399 36.61 28.1399 37.41 31.5999C37.88 33.6299 36.59 35.3499 35.46 36.4199C34.64 37.1999 33.34 37.1899 32.52 36.4199C31.39 35.3499 30.1 33.6299 30.57 31.5999Z" stroke="white" stroke-width="1.5"/>
<path d="M27.5002 20H30.1802C32.0302 20 32.8902 22.29 31.5002 23.51L23.5102 30.5C22.1202 31.71 22.9802 34 24.8202 34H27.5002" stroke="white" stroke-width="1.5" stroke-linecap="round" stroke-linejoin="round"/>
<path d="M20.9862 20.5H20.9978" stroke="white" stroke-width="2" stroke-linecap="round" stroke-linejoin="round"/>
<path d="M33.9862 32.5H33.9978" stroke="white" stroke-width="2" stroke-linecap="round" stroke-linejoin="round"/>
</svg>
