<svg width="54" height="54" viewBox="0 0 54 54" fill="none" xmlns="http://www.w3.org/2000/svg">
<rect width="54" height="54" rx="7" fill="#F07C00"/>
<path d="M23.3799 27.0001L25.7899 29.4201L30.6199 24.5801" stroke="white" stroke-width="1.5" stroke-linecap="round" stroke-linejoin="round"/>
<path d="M25.7499 17.4498C26.4399 16.8598 27.5699 16.8598 28.2699 17.4498L29.8499 18.8098C30.1499 19.0698 30.7099 19.2798 31.1099 19.2798H32.8099C33.8699 19.2798 34.7399 20.1498 34.7399 21.2098V22.9098C34.7399 23.2998 34.9499 23.8698 35.2099 24.1698L36.5699 25.7498C37.1599 26.4398 37.1599 27.5698 36.5699 28.2698L35.2099 29.8498C34.9499 30.1498 34.7399 30.7098 34.7399 31.1098V32.8098C34.7399 33.8698 33.8699 34.7398 32.8099 34.7398H31.1099C30.7199 34.7398 30.1499 34.9498 29.8499 35.2098L28.2699 36.5698C27.5799 37.1598 26.4499 37.1598 25.7499 36.5698L24.1699 35.2098C23.8699 34.9498 23.3099 34.7398 22.9099 34.7398H21.1799C20.1199 34.7398 19.2499 33.8698 19.2499 32.8098V31.0998C19.2499 30.7098 19.0399 30.1498 18.7899 29.8498L17.4399 28.2598C16.8599 27.5698 16.8599 26.4498 17.4399 25.7598L18.7899 24.1698C19.0399 23.8698 19.2499 23.3098 19.2499 22.9198V21.1998C19.2499 20.1398 20.1199 19.2698 21.1799 19.2698H22.9099C23.2999 19.2698 23.8699 19.0598 24.1699 18.7998L25.7499 17.4498Z" stroke="white" stroke-width="1.5" stroke-linecap="round" stroke-linejoin="round"/>
</svg>
