<svg width="54" height="54" viewBox="0 0 54 54" fill="none" xmlns="http://www.w3.org/2000/svg">
<rect width="54" height="54" rx="7" fill="#F07C00"/>
<path d="M37.9999 32.91C38.0199 33.66 37.8199 34.37 37.4599 34.98C37.2599 35.34 36.9899 35.6701 36.6899 35.9401C35.9999 36.5801 35.0899 36.9701 34.0799 37.0001C32.6199 37.0301 31.3299 36.2801 30.6199 35.1301C30.2399 34.5401 30.0099 33.8301 29.9999 33.0801C29.9699 31.8201 30.5299 30.6801 31.4299 29.9301C32.1099 29.3701 32.9699 29.0201 33.9099 29.0001C36.1199 28.9501 37.9499 30.7 37.9999 32.91Z" stroke="white" stroke-width="1.5" stroke-miterlimit="10" stroke-linecap="round" stroke-linejoin="round"/>
<path d="M32.4399 33.0303L33.45 33.9902L35.5399 31.9702" stroke="white" stroke-width="1.5" stroke-linecap="round" stroke-linejoin="round"/>
<path d="M18.1702 22.4399L27.0002 27.5499L35.7701 22.4699" stroke="white" stroke-width="1.5" stroke-linecap="round" stroke-linejoin="round"/>
<path d="M27.0002 36.61V27.54" stroke="white" stroke-width="1.5" stroke-linecap="round" stroke-linejoin="round"/>
<path d="M36.6101 24.17V29.83C36.6101 29.88 36.6101 29.92 36.6001 29.97C35.9001 29.36 35.0001 29 34.0001 29C33.0601 29 32.1901 29.33 31.5001 29.88C30.5801 30.61 30.0001 31.74 30.0001 33C30.0001 33.75 30.2101 34.46 30.5801 35.06C30.6701 35.22 30.7801 35.37 30.9001 35.51L29.0701 36.52C27.9301 37.16 26.0701 37.16 24.9301 36.52L19.5901 33.56C18.3801 32.89 17.3901 31.21 17.3901 29.83V24.17C17.3901 22.79 18.3801 21.11 19.5901 20.44L24.9301 17.48C26.0701 16.84 27.9301 16.84 29.0701 17.48L34.4101 20.44C35.6201 21.11 36.6101 22.79 36.6101 24.17Z" stroke="white" stroke-width="1.5" stroke-linecap="round" stroke-linejoin="round"/>
</svg>
