<svg width="2637" height="1007" viewBox="0 0 2637 1007" fill="none" xmlns="http://www.w3.org/2000/svg">
<path fill-rule="evenodd" clip-rule="evenodd" d="M959.649 242.605L859.287 487.124H217.359L959.649 242.605Z" fill="#EF7F1A"/>
<path fill-rule="evenodd" clip-rule="evenodd" d="M1261.33 762.639L859.286 518.119H217.359L1261.33 762.639Z" fill="#E31E24"/>
<path d="M1203.19 589.446C1184.8 589.446 1166.95 586.746 1150.19 581.344C1133.42 576.483 1117.73 569.461 1102.59 560.814C1076.08 544.069 1054.44 521.378 1037.68 492.75C1020.91 464.657 1012.8 433.864 1012.8 399.289C1012.8 381.464 1015.5 363.635 1020.37 346.89C1025.78 330.141 1032.81 314.476 1041.46 299.892C1058.23 272.88 1080.95 251.269 1109.62 235.064C1137.75 218.32 1169.11 210.213 1203.19 210.213C1237.27 210.213 1268.1 218.32 1296.77 234.524C1325.43 250.729 1348.15 272.88 1364.92 299.892C1373.57 314.476 1380.61 330.141 1385.48 346.89C1390.88 363.635 1393.59 381.464 1393.59 399.289C1393.59 418.199 1390.88 436.024 1385.48 452.774C1380.61 469.518 1373.57 485.183 1364.38 499.772C1347.61 526.239 1325.43 547.85 1296.77 564.595C1268.1 581.344 1237.27 589.446 1203.19 589.446ZM1204.81 242.627C1189.13 242.627 1174.52 244.787 1160.46 249.109C1146.4 252.894 1133.42 258.836 1121.52 266.398C1098.8 279.902 1080.95 298.812 1067.43 322.038C1053.9 345.81 1046.87 371.741 1046.87 399.83C1046.87 414.958 1049.04 429.543 1053.36 443.587C1057.15 457.635 1062.56 470.599 1070.13 482.482C1084.19 505.173 1103.13 522.998 1126.93 536.507C1150.19 550.01 1176.15 557.033 1204.81 557.033C1219.96 557.033 1234.56 554.872 1248.63 550.551C1262.15 546.77 1275.13 540.828 1287.57 533.266C1309.75 519.757 1328.14 500.852 1341.66 477.081C1355.18 453.854 1362.22 427.922 1362.22 399.83C1362.22 371.741 1355.18 345.81 1341.66 322.038C1328.14 298.812 1309.75 279.902 1287.03 266.398C1275.13 258.836 1262.15 252.894 1248.09 249.109C1234.02 244.787 1219.96 242.627 1204.81 242.627ZM1447.68 204.271C1448.22 220.48 1450.92 236.685 1455.25 252.354C1459.03 266.938 1464.44 281.522 1470.94 295.031C1482.83 318.797 1498.52 338.788 1517.99 353.372C1536.92 367.956 1558.02 375.523 1580.73 375.523C1592.64 375.523 1604.54 373.362 1615.89 368.496C1627.25 364.175 1638.07 358.233 1647.81 350.131C1666.2 335.006 1681.34 314.476 1693.24 289.084C1705.14 263.157 1711.63 235.064 1713.26 204.271C1713.26 202.111 1713.8 200.49 1714.88 198.87C1715.96 197.249 1717.04 196.709 1718.67 196.709H1735.97C1737.59 196.709 1738.68 197.789 1739.76 199.41C1740.84 201.03 1741.38 202.111 1741.38 204.271V204.811C1739.22 245.327 1730.02 282.603 1713.26 315.556C1697.03 348.51 1676.48 373.362 1651.59 390.647C1649.43 392.267 1648.35 394.428 1648.35 397.129C1648.35 400.37 1649.43 402.53 1651.59 404.151C1676.48 421.44 1697.03 446.287 1713.26 478.701C1729.48 511.115 1738.68 547.85 1740.84 587.826C1740.84 589.986 1740.3 592.147 1739.22 593.767C1738.14 595.388 1737.05 595.928 1735.43 595.928H1718.67C1717.04 595.928 1715.96 595.388 1714.88 594.308C1713.8 592.687 1713.26 591.607 1713.26 589.446C1712.18 572.701 1710.01 557.033 1705.68 541.908C1701.9 526.779 1697.03 512.735 1690 499.772C1678.1 475.46 1662.95 456.015 1643.48 441.426C1624.55 426.842 1603.45 419.28 1580.73 419.28C1568.3 419.28 1556.4 421.44 1545.04 426.302C1534.22 430.083 1523.4 436.565 1513.67 444.667C1495.27 459.796 1480.13 479.781 1468.23 505.173C1456.87 530.565 1449.84 558.653 1447.68 589.446C1447.68 591.607 1447.14 593.227 1446.59 594.308C1445.51 595.928 1444.43 596.468 1442.27 596.468H1425.5C1423.87 596.468 1422.25 595.928 1421.71 594.308C1420.63 592.687 1420.09 590.527 1420.09 588.366C1421.71 547.85 1430.91 511.115 1447.68 478.701C1463.9 446.287 1484.46 421.44 1509.34 404.151C1511.5 402.53 1512.59 400.37 1512.59 397.129C1512.59 394.428 1511.5 391.727 1509.34 390.647C1484.46 373.362 1463.9 348.51 1447.14 315.556C1430.91 282.603 1421.71 245.327 1420.09 204.811L1419.55 204.271C1419.55 202.111 1420.09 201.03 1421.17 199.41C1422.25 197.789 1423.87 196.709 1425.5 196.709H1442.27C1443.89 196.709 1444.97 197.249 1446.05 198.87C1447.14 200.49 1447.68 202.111 1447.68 204.271ZM1944.22 588.906H1923.66C1922.04 588.906 1920.42 588.366 1918.8 586.745C1917.71 585.665 1917.17 584.045 1917.17 581.884V513.276C1898.79 512.195 1882.02 508.414 1866.33 502.472C1846.86 494.91 1829.55 483.563 1814.94 468.978C1806.29 459.796 1799.26 450.073 1793.31 439.265C1787.9 429.002 1783.03 419.28 1779.79 409.552C1772.75 390.647 1768.97 373.362 1767.89 358.773C1767.35 344.189 1766.8 335.547 1766.8 333.386V204.271C1766.8 202.111 1767.35 201.03 1768.43 199.41C1770.05 198.329 1771.67 197.789 1773.29 197.789H1793.85C1796.01 197.789 1797.64 198.329 1798.72 199.41C1800.34 201.03 1800.88 202.651 1800.88 204.271V334.466L1801.96 352.832C1802.5 365.255 1805.21 379.304 1811.16 394.968C1813.86 404.151 1817.65 412.798 1821.98 421.44C1826.85 430.083 1832.8 437.645 1839.83 445.207C1850.64 457.095 1864.17 465.737 1879.85 471.679C1895.54 477.081 1913.39 480.322 1932.86 480.322C1951.79 480.322 1969.1 477.081 1984.79 471.679C1999.93 465.737 2013.45 457.635 2024.81 446.287C2032.39 438.725 2038.33 430.623 2043.2 421.98C2048.07 413.338 2052.4 404.691 2055.65 396.048C2061.59 380.384 2064.84 366.336 2065.92 353.912C2067 342.029 2067.54 336.087 2067.54 335.547V205.892C2067.54 203.731 2068.08 202.651 2069.17 201.03C2070.79 199.41 2072.41 198.87 2074.03 198.87H2094.59C2096.75 198.87 2098.38 199.41 2099.46 201.03C2101.08 202.651 2101.62 203.731 2101.62 205.892V335.006C2101.62 336.627 2101.08 344.729 2099.46 359.313C2098.38 373.902 2094.05 390.647 2087.01 409.552C2083.23 419.82 2077.82 430.083 2071.87 440.346C2065.92 451.153 2057.81 460.876 2048.61 470.059C2034.55 484.643 2017.78 495.45 1998.31 503.013C1983.71 508.414 1968.02 512.195 1951.25 513.276V581.884C1951.25 584.045 1950.71 585.665 1949.09 586.745C1948.01 588.366 1946.38 588.906 1944.22 588.906ZM2398.03 588.906H2124.34C2121.09 588.906 2119.47 587.826 2117.85 585.665C2117.31 584.585 2116.76 583.505 2116.76 582.424C2116.76 581.344 2117.31 580.264 2118.39 579.183C2171.39 503.553 2250.36 390.107 2356.38 238.846C2358 236.685 2358 235.064 2356.92 232.904C2355.84 230.743 2354.22 229.663 2352.05 229.663H2173.02C2171.39 229.663 2170.31 229.123 2169.23 227.502C2167.61 226.422 2167.07 224.801 2167.07 223.181V204.271C2167.07 202.651 2167.61 201.03 2169.23 199.95C2170.31 198.329 2171.39 197.789 2173.02 197.789H2409.93C2412.1 197.789 2414.26 198.87 2415.34 201.03C2415.88 202.111 2416.42 203.191 2416.42 204.271C2415.88 205.351 2415.34 206.432 2414.8 207.512C2362.33 283.143 2283.9 396.589 2178.97 547.85C2177.35 550.011 2177.35 552.171 2178.43 554.332C2179.51 556.492 2181.13 557.573 2183.84 557.573H2397.49C2399.11 557.573 2400.73 558.113 2401.82 559.193C2402.9 560.273 2403.44 561.354 2403.44 563.514V582.424C2403.44 584.045 2402.9 585.665 2401.82 587.286C2400.73 588.366 2399.65 588.906 2398.03 588.906Z" fill="#2B2A29"/>
<path d="M1430.4 652.723V685.295H1447.97V690.306C1447.97 691.716 1447.5 692.809 1446.71 693.749C1445.61 694.847 1444.51 695.317 1443.1 695.317H1430.4V728.828C1430.56 735.091 1432.91 740.571 1437.46 744.958C1442 749.499 1447.34 751.69 1453.77 751.69C1455.02 751.849 1456.12 752.318 1457.06 753.258C1458 754.198 1458.47 755.291 1458.47 756.701V759.832C1458.47 760.302 1458.31 760.618 1458 760.93C1457.68 761.242 1457.37 761.4 1456.9 761.4H1453.77C1444.83 761.242 1437.14 758.111 1430.87 751.69C1424.45 745.428 1421.15 737.756 1420.99 728.986V695.317H1404.69V690.618C1404.69 689.524 1405 688.584 1405.47 687.645C1406.1 686.705 1406.88 685.919 1407.83 685.607C1408.3 685.449 1408.92 685.295 1409.39 685.295H1420.99V648.024H1425.7C1426.95 648.024 1428.05 648.494 1428.99 649.434C1429.93 650.374 1430.4 651.472 1430.4 652.723ZM1473.52 751.69V759.521C1473.52 759.99 1473.37 760.302 1473.05 760.618C1472.74 760.93 1472.43 761.088 1471.96 761.088H1465.53C1465.06 761.088 1464.74 760.93 1464.43 760.618C1464.12 760.302 1463.96 759.99 1463.96 759.521V728.2C1463.96 719.747 1466.78 712.386 1472.43 706.278C1478.23 700.169 1485.13 696.568 1493.28 695.786H1493.59C1493.91 695.786 1494.22 695.945 1494.54 696.098C1494.85 696.414 1495 696.726 1495 697.196V703.617C1495 703.928 1494.85 704.245 1494.69 704.556C1494.38 704.868 1494.06 705.026 1493.59 705.026C1487.95 705.808 1483.09 708.315 1479.17 712.698C1475.25 717.085 1473.37 722.25 1473.37 728.2V751.69H1473.52ZM1569.48 729.14V759.832C1569.48 760.302 1569.32 760.772 1569.01 760.93C1568.7 761.242 1568.38 761.4 1567.91 761.4H1537.18C1528.4 761.4 1520.87 758.269 1514.29 752.16C1507.7 746.052 1504.25 738.692 1503.94 730.08V728.828C1503.94 723.036 1505.35 717.867 1508.02 713.01C1510.84 707.846 1514.92 703.775 1519.77 700.797C1522.44 699.229 1525.26 697.978 1528.4 697.196C1531.07 696.414 1533.73 696.098 1536.55 696.098H1537.96C1546.59 696.568 1553.96 700.016 1560.07 706.436C1566.34 713.01 1569.48 720.528 1569.48 729.14ZM1560.07 750.597V729.14C1560.07 722.878 1557.87 717.397 1553.64 712.856C1549.25 708.157 1543.92 705.65 1537.49 705.496H1536.87C1530.44 705.496 1524.79 707.846 1520.24 712.386C1515.7 716.927 1513.35 722.408 1513.35 728.828V729.61C1513.5 735.877 1516.01 741.199 1520.56 745.582C1525.26 749.969 1530.75 752.16 1537.02 752.16H1558.66C1558.97 752.16 1559.29 752.002 1559.6 751.69C1559.91 751.379 1560.07 751.067 1560.07 750.597ZM1637.21 728.516V759.679C1637.21 760.148 1637.06 760.618 1636.9 760.93C1636.59 761.088 1636.27 761.242 1635.8 761.242C1634.55 761.4 1632.82 761.4 1630.32 761.4C1629.85 761.4 1629.53 761.242 1629.22 760.93C1628.9 760.618 1628.75 760.302 1628.75 759.832V728.67C1628.75 722.25 1626.71 716.769 1622.63 712.228C1618.55 707.687 1613.54 705.338 1607.74 705.338C1601.94 705.338 1596.92 707.687 1592.84 712.228C1588.76 716.769 1586.73 722.25 1586.73 728.67V760.302C1586.57 760.618 1586.26 760.93 1586.1 761.088C1585.94 761.242 1585.63 761.242 1585.32 761.242H1579.83C1579.36 761.242 1579.04 761.088 1578.73 760.93C1578.42 760.618 1578.26 760.148 1578.26 759.679V728.516C1578.26 719.589 1581.08 711.917 1586.88 705.496C1592.69 699.076 1599.58 695.945 1607.74 695.945C1615.89 695.945 1622.79 699.076 1628.43 705.496C1634.23 711.917 1637.21 719.589 1637.21 728.516ZM1661.99 761.4C1658.85 761.4 1655.87 760.93 1652.74 759.99C1649.75 759.051 1646.78 757.799 1643.8 756.078C1643.17 755.761 1642.86 755.291 1642.7 754.822C1642.54 754.51 1642.54 754.198 1642.54 754.04C1642.7 753.882 1642.7 753.57 1643.01 753.258C1643.64 752.318 1644.58 750.909 1645.68 748.871C1645.99 748.559 1646.46 748.247 1646.93 748.247C1647.4 748.089 1647.87 748.089 1648.34 748.401C1653.21 751.221 1657.44 752.63 1661.05 752.472C1664.65 752.318 1667.79 751.849 1670.45 750.751C1672.96 749.811 1674.22 748.089 1674.37 745.27C1674.37 742.451 1674.06 740.259 1673.43 738.38C1672.96 736.816 1670.92 735.249 1667.48 733.527C1664.02 731.648 1661.05 730.08 1658.38 728.986C1656.65 728.047 1654.93 727.26 1653.21 726.479C1651.48 725.697 1650.07 724.915 1648.97 723.976C1646.93 722.72 1645.52 720.998 1644.58 718.961C1643.48 716.927 1643.01 714.736 1643.01 712.07C1643.01 710.507 1643.17 709.097 1643.48 707.999C1643.8 706.748 1643.96 705.966 1644.11 705.65C1644.58 703.928 1646.31 701.895 1648.81 699.388C1651.32 697.038 1655.24 695.628 1660.26 695.158C1661.2 695.005 1662.14 695.005 1663.08 695.005C1666.22 695.005 1669.2 695.475 1671.7 696.568C1675 697.824 1677.19 699.076 1678.76 700.016C1679.39 700.327 1679.54 700.797 1679.54 701.425C1679.7 701.895 1679.54 702.365 1679.23 702.835C1678.92 703.147 1678.29 703.775 1677.51 704.556C1677.19 705.18 1676.57 705.808 1675.79 706.748C1675.47 707.059 1675.16 707.218 1674.69 707.376C1674.22 707.376 1673.9 707.218 1673.43 707.06C1672.33 706.436 1670.61 705.65 1668.57 704.714C1666.38 703.928 1663.86 703.617 1661.05 703.928C1657.75 704.245 1655.56 705.026 1654.46 706.278C1653.21 707.529 1652.42 709.409 1651.8 712.07C1651.48 714.108 1652.27 715.829 1653.99 717.085C1654.93 717.555 1656.03 718.337 1657.59 718.961C1659.01 719.747 1660.58 720.37 1662.3 721.156C1666.53 723.19 1670.61 725.381 1674.37 727.577C1678.29 729.768 1680.8 732.587 1681.9 735.877C1682.84 738.85 1683.47 741.669 1683.47 744.177C1683.47 746.368 1683 748.401 1682.37 750.439C1680.8 754.822 1677.82 757.799 1673.59 759.362C1671.55 759.99 1669.51 760.46 1667.63 760.93C1665.75 761.242 1663.87 761.4 1661.99 761.4ZM1756.06 729.456C1755.9 738.692 1752.61 746.522 1746.02 752.942C1739.44 759.362 1731.44 762.652 1722.35 762.652H1700.08C1699.61 762.652 1699.3 762.81 1698.99 763.122C1698.67 763.28 1698.52 763.75 1698.52 764.219V803.682C1698.52 804.933 1698.2 806.031 1697.26 806.971C1696.48 807.911 1695.54 808.38 1694.28 808.534H1689.11V729.456C1689.11 720.216 1692.24 712.386 1698.67 705.65C1705.1 699.076 1712.94 695.787 1722.35 695.628H1722.66C1731.91 695.475 1739.75 698.76 1746.34 705.338C1752.77 711.917 1756.06 719.9 1756.06 729.14V729.456ZM1722.35 705.026C1715.6 705.18 1709.96 707.529 1705.42 712.386C1700.87 717.239 1698.52 722.878 1698.52 729.456V751.532C1698.52 752.002 1698.67 752.472 1698.99 752.788C1699.3 753.1 1699.77 753.258 1700.24 753.258H1722.66C1729.25 753.258 1734.89 750.909 1739.6 746.21C1744.3 741.511 1746.65 735.718 1746.65 729.14C1746.65 722.408 1744.3 716.615 1739.44 712.07C1734.74 707.376 1729.09 705.026 1722.5 705.026H1722.35ZM1796.51 761.242C1787.42 761.242 1779.74 757.957 1773.31 751.532C1766.88 745.112 1763.74 737.44 1763.74 728.516C1763.74 719.43 1766.88 711.758 1773.31 705.338C1779.74 698.918 1787.42 695.786 1796.51 695.786C1805.45 695.786 1813.14 698.918 1819.56 705.338C1825.99 711.758 1829.29 719.589 1829.29 728.516C1829.29 737.44 1825.99 745.112 1819.56 751.532C1813.29 757.957 1805.61 761.242 1796.51 761.242ZM1796.51 705.026C1789.93 705.026 1784.28 707.376 1779.74 711.917C1775.19 716.457 1772.84 721.938 1772.84 728.516C1772.84 734.937 1775.19 740.417 1779.89 745.112C1784.44 749.657 1790.09 752.002 1796.51 752.002C1802.94 752.002 1808.59 749.657 1813.14 745.112C1817.68 740.417 1820.03 734.937 1820.03 728.516C1820.03 721.938 1817.68 716.457 1813.14 711.917C1808.59 707.376 1802.94 705.026 1796.51 705.026ZM1847.47 751.69V759.521C1847.47 759.99 1847.32 760.302 1847 760.618C1846.69 760.93 1846.38 761.088 1845.91 761.088H1839.48C1839.01 761.088 1838.69 760.93 1838.38 760.618C1838.07 760.302 1837.91 759.99 1837.91 759.521V728.2C1837.91 719.747 1840.73 712.386 1846.38 706.278C1852.18 700.169 1859.08 696.568 1867.23 695.786H1867.54C1867.86 695.786 1868.17 695.945 1868.49 696.098C1868.8 696.414 1868.95 696.726 1868.95 697.196V703.617C1868.95 703.928 1868.8 704.245 1868.64 704.556C1868.33 704.868 1868.01 705.026 1867.54 705.026C1861.9 705.808 1857.04 708.315 1853.12 712.698C1849.2 717.085 1847.32 722.25 1847.32 728.2V751.69H1847.47ZM1898.59 652.723V685.295H1916.15V690.306C1916.15 691.716 1915.68 692.809 1914.89 693.749C1913.8 694.847 1912.7 695.317 1911.29 695.317H1898.59V728.828C1898.74 735.091 1901.09 740.571 1905.64 744.958C1910.19 749.499 1915.52 751.69 1921.95 751.69C1923.2 751.849 1924.3 752.318 1925.24 753.258C1926.18 754.198 1926.65 755.291 1926.65 756.701V759.832C1926.65 760.302 1926.5 760.618 1926.18 760.93C1925.87 761.242 1925.55 761.4 1925.08 761.4H1921.95C1913.01 761.242 1905.33 758.111 1899.06 751.69C1892.63 745.428 1889.34 737.756 1889.18 728.986V695.317H1872.87V690.618C1872.87 689.524 1873.19 688.584 1873.66 687.645C1874.29 686.705 1875.07 685.919 1876.01 685.607C1876.48 685.449 1877.1 685.295 1877.57 685.295H1889.18V648.024H1893.88C1895.14 648.024 1896.24 648.494 1897.18 649.434C1898.12 650.374 1898.59 651.472 1898.59 652.723ZM1982.47 653.975V729.14C1982.63 735.407 1984.83 740.729 1989.37 745.112C1993.92 749.657 1999.25 751.849 2005.52 752.002C2006.78 752.002 2007.87 752.472 2008.66 753.412C2009.6 754.352 2010.07 755.45 2010.07 756.547V759.832C2010.07 760.302 2009.91 760.618 2009.75 760.93C2009.44 761.242 2008.97 761.4 2008.5 761.4H2005.52C1996.58 761.242 1989.06 758.111 1982.79 751.849C1976.36 745.582 1973.22 738.068 1973.06 729.298V649.276H1977.77C1979.02 649.276 1980.12 649.746 1981.06 650.686C1982 651.625 1982.47 652.723 1982.47 653.975ZM2046.13 761.242C2037.04 761.242 2029.35 757.957 2022.92 751.532C2016.49 745.112 2013.36 737.44 2013.36 728.516C2013.36 719.43 2016.49 711.758 2022.92 705.338C2029.35 698.918 2037.04 695.786 2046.13 695.786C2055.07 695.786 2062.75 698.918 2069.18 705.338C2075.61 711.758 2078.9 719.589 2078.9 728.516C2078.9 737.44 2075.61 745.112 2069.18 751.532C2062.9 757.957 2055.22 761.242 2046.13 761.242ZM2046.13 705.026C2039.54 705.026 2033.9 707.376 2029.35 711.917C2024.8 716.457 2022.45 721.938 2022.45 728.516C2022.45 734.937 2024.8 740.417 2029.51 745.112C2034.06 749.657 2039.7 752.002 2046.13 752.002C2052.56 752.002 2058.2 749.657 2062.75 745.112C2067.3 740.417 2069.65 734.937 2069.65 728.516C2069.65 721.938 2067.3 716.457 2062.75 711.917C2058.2 707.376 2052.56 705.026 2046.13 705.026ZM2094.74 774.869C2095.21 774.869 2095.52 775.023 2095.83 775.339C2096.15 775.651 2096.3 775.962 2096.3 776.12C2096.62 782.383 2098.97 787.552 2103.52 791.934C2108.06 796.163 2113.4 798.355 2119.67 798.355C2126.09 798.355 2131.58 796.163 2136.13 791.622C2140.68 787.082 2142.87 781.443 2142.87 775.023V761.088H2119.98C2111.04 761.088 2103.36 757.957 2096.78 751.532C2090.19 745.428 2086.9 737.756 2086.74 728.986V728.516C2086.74 719.589 2090.03 711.917 2096.46 705.496C2102.73 699.076 2110.41 695.945 2119.51 696.098H2119.82C2128.61 696.098 2136.29 699.388 2142.56 705.808C2148.99 712.386 2152.12 720.058 2152.12 728.986V774.711C2152.12 783.639 2148.83 791.464 2142.4 798.043C2136.13 804.463 2128.45 807.752 2119.51 807.752H2119.35C2110.57 807.594 2103.05 804.621 2096.78 798.513C2090.51 792.562 2087.21 785.202 2086.74 776.432C2086.74 775.962 2086.9 775.651 2087.21 775.339C2087.52 775.023 2087.84 775.023 2088.31 775.023C2089.72 774.869 2091.92 774.869 2094.74 774.869ZM2142.87 729.14C2142.87 722.566 2140.68 717.085 2136.13 712.54C2131.58 707.846 2126.09 705.496 2119.67 705.496C2113.24 705.496 2107.59 707.846 2103.05 712.386C2098.5 716.927 2096.15 722.408 2096.15 728.828C2096.3 735.249 2098.66 740.729 2103.2 745.27C2107.91 749.811 2113.4 752.002 2119.82 752.002H2141.3C2141.77 752.002 2142.09 751.849 2142.4 751.532C2142.72 751.221 2142.87 750.909 2142.87 750.439V729.14ZM2167.02 685.919H2160.59V679.498C2160.59 677.623 2161.22 676.055 2162.47 674.958C2163.73 673.706 2165.14 673.078 2167.02 673.078C2168.75 673.078 2170.31 673.706 2171.56 674.958C2172.82 676.214 2173.45 677.777 2173.45 679.498C2173.45 681.224 2172.82 682.634 2171.56 683.886C2170.47 685.295 2168.9 685.919 2167.02 685.919ZM2162.47 760.93C2162 760.93 2161.69 760.772 2161.38 760.618C2161.22 760.302 2161.06 759.99 2161.06 759.521V696.414C2161.06 695.945 2161.22 695.628 2161.53 695.317C2161.85 695.005 2162.16 694.847 2162.63 694.847H2168.9C2169.37 694.847 2169.69 695.005 2170 695.317C2170.31 695.628 2170.47 695.945 2170.47 696.414V759.521C2170.47 759.99 2170.31 760.302 2170 760.618C2169.84 760.772 2169.53 760.93 2169.06 760.93H2162.47ZM2197.75 761.4C2194.61 761.4 2191.64 760.93 2188.5 759.99C2185.52 759.051 2182.54 757.799 2179.56 756.078C2178.94 755.761 2178.62 755.291 2178.47 754.822C2178.31 754.51 2178.31 754.198 2178.31 754.04C2178.47 753.882 2178.47 753.57 2178.78 753.258C2179.41 752.318 2180.35 750.909 2181.44 748.871C2181.76 748.559 2182.23 748.247 2182.7 748.247C2183.17 748.089 2183.64 748.089 2184.11 748.401C2188.97 751.221 2193.2 752.63 2196.81 752.472C2200.42 752.318 2203.55 751.849 2206.22 750.751C2208.73 749.811 2209.98 748.089 2210.14 745.27C2210.14 742.451 2209.82 740.259 2209.2 738.38C2208.73 736.816 2206.69 735.249 2203.24 733.527C2199.79 731.648 2196.81 730.08 2194.14 728.986C2192.42 728.047 2190.7 727.26 2188.97 726.479C2187.24 725.697 2185.84 724.915 2184.74 723.976C2182.7 722.72 2181.29 720.998 2180.35 718.961C2179.25 716.927 2178.78 714.736 2178.78 712.07C2178.78 710.507 2178.94 709.097 2179.25 707.999C2179.56 706.748 2179.72 705.966 2179.87 705.65C2180.35 703.928 2182.07 701.895 2184.58 699.388C2187.09 697.038 2191.01 695.628 2196.03 695.158C2196.97 695.005 2197.91 695.005 2198.85 695.005C2201.98 695.005 2204.96 695.475 2207.47 696.568C2210.76 697.824 2212.96 699.076 2214.53 700.016C2215.16 700.327 2215.31 700.797 2215.31 701.425C2215.47 701.895 2215.31 702.365 2215 702.835C2214.69 703.147 2214.06 703.775 2213.27 704.556C2212.96 705.18 2212.33 705.808 2211.55 706.748C2211.23 707.059 2210.92 707.218 2210.45 707.376C2209.98 707.376 2209.67 707.218 2209.2 707.06C2208.1 706.436 2206.38 705.65 2204.34 704.714C2202.14 703.928 2199.63 703.617 2196.81 703.928C2193.52 704.245 2191.32 705.026 2190.23 706.278C2188.97 707.529 2188.19 709.409 2187.56 712.07C2187.24 714.108 2188.03 715.829 2189.75 717.085C2190.7 717.555 2191.8 718.337 2193.36 718.961C2194.77 719.747 2196.34 720.37 2198.07 721.156C2202.3 723.19 2206.38 725.381 2210.14 727.577C2214.06 729.768 2216.57 732.587 2217.66 735.877C2218.6 738.85 2219.23 741.669 2219.23 744.177C2219.23 746.368 2218.76 748.401 2218.13 750.439C2216.57 754.822 2213.59 757.799 2209.35 759.362C2207.32 759.99 2205.28 760.46 2203.39 760.93C2201.51 761.242 2199.63 761.4 2197.75 761.4ZM2245.73 652.723V685.295H2263.29V690.306C2263.29 691.716 2262.82 692.809 2262.03 693.749C2260.94 694.847 2259.84 695.317 2258.43 695.317H2245.73V728.828C2245.88 735.091 2248.24 740.571 2252.78 744.958C2257.33 749.499 2262.66 751.69 2269.09 751.69C2270.34 751.849 2271.44 752.318 2272.38 753.258C2273.33 754.198 2273.8 755.291 2273.8 756.701V759.832C2273.8 760.302 2273.64 760.618 2273.33 760.93C2273.01 761.242 2272.7 761.4 2272.23 761.4H2269.09C2260.15 761.242 2252.47 758.111 2246.2 751.69C2239.77 745.428 2236.48 737.756 2236.32 728.986V695.317H2220.02V690.618C2220.02 689.524 2220.33 688.584 2220.8 687.645C2221.43 686.705 2222.21 685.919 2223.15 685.607C2223.62 685.449 2224.25 685.295 2224.72 685.295H2236.32V648.024H2241.02C2242.28 648.024 2243.38 648.494 2244.32 649.434C2245.26 650.374 2245.73 651.472 2245.73 652.723ZM2286.49 685.919H2280.07V679.498C2280.07 677.623 2280.69 676.055 2281.95 674.958C2283.21 673.706 2284.61 673.078 2286.49 673.078C2288.22 673.078 2289.79 673.706 2291.04 674.958C2292.3 676.214 2292.92 677.777 2292.92 679.498C2292.92 681.224 2292.3 682.634 2291.04 683.886C2289.95 685.295 2288.38 685.919 2286.49 685.919ZM2281.95 760.93C2281.48 760.93 2281.17 760.772 2280.85 760.618C2280.69 760.302 2280.54 759.99 2280.54 759.521V696.414C2280.54 695.945 2280.69 695.628 2281.01 695.317C2281.32 695.005 2281.64 694.847 2282.11 694.847H2288.38C2288.85 694.847 2289.16 695.005 2289.48 695.317C2289.79 695.628 2289.95 695.945 2289.95 696.414V759.521C2289.95 759.99 2289.79 760.302 2289.48 760.618C2289.32 760.772 2289.01 760.93 2288.53 760.93H2281.95ZM2347.49 747.778C2347.96 748.089 2348.43 748.559 2349.21 749.187C2350 749.811 2350.63 750.281 2350.94 750.597C2351.25 750.909 2351.72 751.379 2352.19 751.69C2352.66 752.002 2352.82 752.472 2352.82 752.942C2352.82 753.412 2352.66 753.728 2352.19 754.04C2349.68 756.078 2347.02 757.641 2344.2 758.739C2341.22 759.832 2338.24 760.618 2335.1 760.93C2334.16 761.088 2333.06 761.088 2332.12 761.088C2327.42 761.088 2322.87 759.99 2318.48 757.957C2312.84 755.608 2308.13 751.69 2304.53 746.052C2301.39 741.511 2299.51 736.347 2299.2 730.866C2299.04 729.926 2299.04 729.14 2299.04 728.358C2299.04 723.659 2299.98 719.119 2302.17 714.736C2305.16 708.469 2309.39 703.617 2314.88 700.327C2320.36 697.196 2326.01 695.628 2332.12 695.475H2332.28C2335.42 695.475 2338.55 695.945 2341.53 696.884C2344.67 697.824 2347.64 699.229 2350.47 701.109C2350.47 701.267 2350.63 701.267 2350.63 701.425C2350.63 701.579 2350.47 701.579 2350.47 701.737C2349.37 702.677 2348.43 703.775 2347.33 704.714L2344.35 707.687C2344.04 707.846 2343.88 707.846 2343.88 707.687C2337.93 704.556 2331.65 704.086 2325.07 706.12C2318.32 708.315 2313.47 713.01 2310.48 720.058C2309.23 723.19 2308.76 726.479 2308.92 729.926C2309.07 733.211 2310.01 736.347 2311.74 739.32C2315.5 746.052 2320.68 749.969 2327.42 751.221C2334.32 752.63 2340.43 751.379 2345.61 747.778C2345.92 747.62 2346.23 747.461 2346.55 747.461C2346.86 747.461 2347.17 747.62 2347.49 747.778ZM2376.81 761.4C2373.67 761.4 2370.69 760.93 2367.56 759.99C2364.58 759.051 2361.6 757.799 2358.62 756.078C2357.99 755.761 2357.68 755.291 2357.52 754.822C2357.37 754.51 2357.37 754.198 2357.37 754.04C2357.52 753.882 2357.52 753.57 2357.84 753.258C2358.47 752.318 2359.4 750.909 2360.5 748.871C2360.81 748.559 2361.28 748.247 2361.75 748.247C2362.22 748.089 2362.7 748.089 2363.17 748.401C2368.03 751.221 2372.26 752.63 2375.87 752.472C2379.47 752.318 2382.61 751.849 2385.27 750.751C2387.78 749.811 2389.04 748.089 2389.2 745.27C2389.2 742.451 2388.88 740.259 2388.25 738.38C2387.78 736.816 2385.74 735.249 2382.3 733.527C2378.85 731.648 2375.87 730.08 2373.2 728.986C2371.48 728.047 2369.75 727.26 2368.03 726.479C2366.3 725.697 2364.89 724.915 2363.79 723.976C2361.75 722.72 2360.34 720.998 2359.4 718.961C2358.31 716.927 2357.84 714.736 2357.84 712.07C2357.84 710.507 2357.99 709.097 2358.31 707.999C2358.62 706.748 2358.78 705.966 2358.93 705.65C2359.4 703.928 2361.13 701.895 2363.64 699.388C2366.15 697.038 2370.06 695.628 2375.08 695.158C2376.02 695.005 2376.96 695.005 2377.9 695.005C2381.04 695.005 2384.02 695.475 2386.53 696.568C2389.82 697.824 2392.01 699.076 2393.58 700.016C2394.21 700.327 2394.37 700.797 2394.37 701.425C2394.53 701.895 2394.37 702.365 2394.05 702.835C2393.74 703.147 2393.11 703.775 2392.33 704.556C2392.01 705.18 2391.39 705.808 2390.61 706.748C2390.29 707.059 2389.98 707.218 2389.51 707.376C2389.04 707.376 2388.73 707.218 2388.25 707.06C2387.16 706.436 2385.43 705.65 2383.39 704.714C2381.2 703.928 2378.69 703.617 2375.87 703.928C2372.57 704.245 2370.38 705.026 2369.28 706.278C2368.03 707.529 2367.24 709.409 2366.62 712.07C2366.3 714.108 2367.09 715.829 2368.81 717.085C2369.75 717.555 2370.85 718.337 2372.42 718.961C2373.83 719.747 2375.4 720.37 2377.12 721.156C2381.36 723.19 2385.43 725.381 2389.2 727.577C2393.11 729.768 2395.62 732.587 2396.72 735.877C2397.66 738.85 2398.29 741.669 2398.29 744.177C2398.29 746.368 2397.82 748.401 2397.19 750.439C2395.62 754.822 2392.64 757.799 2388.41 759.362C2386.37 759.99 2384.33 760.46 2382.45 760.93C2380.57 761.242 2378.69 761.4 2376.81 761.4Z" fill="#2B2A29"/>
</svg>
