<?xml version="1.0" encoding="UTF-8"?>
<!DOCTYPE svg PUBLIC "-//W3C//DTD SVG 1.1//EN" "http://www.w3.org/Graphics/SVG/1.1/DTD/svg11.dtd">
<!-- Creator: CorelDRAW -->
<svg xmlns="http://www.w3.org/2000/svg" xml:space="preserve" width="59.9722mm" height="22.9306mm" version="1.1" style="shape-rendering:geometricPrecision; text-rendering:geometricPrecision; image-rendering:optimizeQuality; fill-rule:evenodd; clip-rule:evenodd"
viewBox="0 0 5997.22 2293.06"
 xmlns:xlink="http://www.w3.org/1999/xlink"
 xmlns:xodm="http://www.corel.com/coreldraw/odm/2003">
 <defs>
  <style type="text/css">
   <![CDATA[
    .fil0 {fill:#EF7F1A}
    .fil1 {fill:#E31E24}
    .fil2 {fill:#2B2A29;fill-rule:nonzero}
   ]]>
  </style>
 </defs>
 <g id="Слой_x0020_1">
  <metadata id="CorelCorpID_0Corel-Layer"/>
  <polygon class="fil0" points="2182.49,552.44 1954.24,1109.24 494.33,1109.24 "/>
  <polygon class="fil1" points="2868.6,1736.62 1954.24,1179.82 494.33,1179.82 "/>
  <path class="fil2" d="M2736.37 1342.24c-41.82,0 -82.42,-6.15 -120.55,-18.45 -38.14,-11.07 -73.81,-27.06 -108.25,-46.75 -60.28,-38.13 -109.49,-89.8 -147.62,-154.99 -38.13,-63.97 -56.59,-134.09 -56.59,-212.82 0,-40.59 6.15,-81.19 17.23,-119.32 12.3,-38.14 28.29,-73.81 47.97,-107.02 38.14,-61.51 89.8,-110.72 155,-147.62 63.97,-38.13 135.31,-56.59 212.81,-56.59 77.5,0 147.62,18.46 212.82,55.36 65.19,36.9 116.86,87.34 154.99,148.85 19.68,33.21 35.68,68.88 46.75,107.02 12.3,38.13 18.45,78.73 18.45,119.32 0,43.06 -6.15,83.65 -18.45,121.79 -11.07,38.13 -27.07,73.8 -47.98,107.02 -38.13,60.27 -88.57,109.48 -153.76,147.61 -65.2,38.14 -135.32,56.59 -212.82,56.59zm3.69 -789.75c-35.67,0 -68.89,4.92 -100.87,14.76 -31.98,8.62 -61.51,22.15 -88.57,39.37 -51.66,30.75 -92.26,73.81 -123.01,126.7 -30.76,54.13 -46.75,113.18 -46.75,177.14 0,34.45 4.92,67.66 14.76,99.64 8.62,31.99 20.92,61.51 38.14,88.57 31.98,51.67 75.04,92.26 129.16,123.02 52.9,30.75 111.95,46.74 177.14,46.74 34.45,0 67.66,-4.92 99.64,-14.76 30.76,-8.61 60.28,-22.14 88.57,-39.36 50.44,-30.76 92.26,-73.81 123.02,-127.94 30.75,-52.89 46.74,-111.94 46.74,-175.91 0,-63.96 -15.99,-123.01 -46.74,-177.14 -30.76,-52.89 -72.58,-95.95 -124.25,-126.7 -27.06,-17.22 -56.58,-30.75 -88.57,-39.37 -31.98,-9.84 -63.96,-14.76 -98.41,-14.76zm552.33 -87.34c1.23,36.91 7.38,73.81 17.22,109.49 8.61,33.21 20.91,66.42 35.68,97.18 27.06,54.12 62.73,99.64 107.02,132.85 43.05,33.21 91.03,50.44 142.69,50.44 27.07,0 54.13,-4.92 79.96,-16 25.83,-9.84 50.44,-23.37 72.58,-41.82 41.82,-34.44 76.27,-81.19 103.33,-139.01 27.06,-59.04 41.83,-123.01 45.52,-193.13 0,-4.92 1.23,-8.61 3.69,-12.3 2.46,-3.69 4.92,-4.92 8.61,-4.92l39.36 0c3.69,0 6.15,2.46 8.61,6.15 2.46,3.69 3.69,6.15 3.69,11.07l0 1.23c-4.92,92.26 -25.83,177.14 -63.96,252.18 -36.91,75.04 -83.65,131.63 -140.24,170.99 -4.92,3.69 -7.38,8.61 -7.38,14.76 0,7.38 2.46,12.3 7.38,15.99 56.59,39.37 103.33,95.95 140.24,169.76 36.9,73.81 57.81,157.46 62.73,248.49 0,4.92 -1.23,9.84 -3.69,13.53 -2.46,3.69 -4.92,4.92 -8.61,4.92l-38.13 0c-3.69,0 -6.15,-1.23 -8.61,-3.69 -2.46,-3.69 -3.69,-6.15 -3.69,-11.07 -2.46,-38.13 -7.38,-73.81 -17.23,-108.25 -8.61,-34.45 -19.68,-66.43 -35.67,-95.95 -27.06,-55.36 -61.51,-99.64 -105.79,-132.86 -43.06,-33.21 -91.03,-50.43 -142.7,-50.43 -28.29,0 -55.35,4.92 -81.19,15.99 -24.6,8.61 -49.2,23.37 -71.34,41.82 -41.83,34.45 -76.27,79.96 -103.34,137.78 -25.83,57.82 -41.82,121.78 -46.74,191.9 0,4.92 -1.23,8.61 -2.46,11.07 -2.46,3.69 -4.92,4.92 -9.84,4.92l-38.14 0c-3.69,0 -7.38,-1.23 -8.61,-4.92 -2.46,-3.69 -3.69,-8.61 -3.69,-13.53 3.69,-92.26 24.61,-175.91 62.74,-249.72 36.9,-73.81 83.65,-130.39 140.24,-169.76 4.92,-3.69 7.38,-8.61 7.38,-15.99 0,-6.15 -2.46,-12.3 -7.38,-14.76 -56.59,-39.36 -103.34,-95.95 -141.47,-170.99 -36.9,-75.04 -57.82,-159.92 -61.51,-252.18l-1.23 -1.23c0,-4.92 1.23,-7.38 3.69,-11.07 2.46,-3.69 6.15,-6.15 9.84,-6.15l38.14 0c3.69,0 6.15,1.23 8.61,4.92 2.46,3.69 3.69,7.38 3.69,12.3zm1129.27 875.86l-46.75 0c-3.69,0 -7.38,-1.23 -11.07,-4.92 -2.46,-2.46 -3.69,-6.15 -3.69,-11.07l0 -156.23c-41.82,-2.46 -79.96,-11.07 -115.63,-24.6 -44.29,-17.22 -83.65,-43.06 -116.87,-76.27 -19.68,-20.91 -35.67,-43.05 -49.2,-67.66 -12.3,-23.37 -23.37,-45.51 -30.75,-67.66 -16,-43.05 -24.61,-82.41 -27.07,-115.63 -1.23,-33.21 -2.46,-52.89 -2.46,-57.81l0 -294.01c0,-4.92 1.23,-7.38 3.69,-11.07 3.69,-2.46 7.38,-3.69 11.07,-3.69l46.75 0c4.92,0 8.61,1.23 11.07,3.69 3.69,3.69 4.92,7.38 4.92,11.07l0 296.47 2.46 41.82c1.23,28.29 7.38,60.28 20.91,95.95 6.15,20.91 14.77,40.6 24.61,60.28 11.07,19.68 24.6,36.9 40.59,54.12 24.6,27.07 55.36,46.75 91.03,60.28 35.68,12.3 76.27,19.68 120.55,19.68 43.06,0 82.42,-7.38 118.1,-19.68 34.44,-13.53 65.19,-31.98 91.03,-57.82 17.22,-17.22 30.75,-35.67 41.82,-55.35 11.07,-19.68 20.91,-39.37 28.3,-59.05 13.53,-35.67 20.91,-67.66 23.37,-95.95 2.46,-27.06 3.69,-40.59 3.69,-41.82l0 -295.24c0,-4.92 1.23,-7.38 3.69,-11.07 3.69,-3.69 7.38,-4.92 11.07,-4.92l46.75 0c4.92,0 8.61,1.23 11.07,4.92 3.69,3.69 4.92,6.15 4.92,11.07l0 294.01c0,3.69 -1.23,22.14 -4.92,55.35 -2.46,33.22 -12.3,71.35 -28.3,114.4 -8.61,23.38 -20.91,46.75 -34.44,70.12 -13.53,24.61 -31.98,46.75 -52.9,67.66 -31.98,33.21 -70.11,57.82 -114.4,75.04 -33.21,12.3 -68.89,20.91 -107.02,23.37l0 156.23c0,4.92 -1.23,8.61 -4.92,11.07 -2.46,3.69 -6.15,4.92 -11.07,4.92zm1032.08 0l-622.45 0c-7.38,0 -11.07,-2.46 -14.76,-7.38 -1.23,-2.46 -2.46,-4.92 -2.46,-7.38 0,-2.46 1.23,-4.92 3.69,-7.38 120.55,-172.22 300.15,-430.55 541.26,-774.99 3.69,-4.92 3.69,-8.61 1.23,-13.53 -2.46,-4.92 -6.15,-7.38 -11.07,-7.38l-407.18 0c-3.69,0 -6.15,-1.23 -8.61,-4.92 -3.69,-2.46 -4.92,-6.15 -4.92,-9.84l0 -43.06c0,-3.69 1.23,-7.38 4.92,-9.84 2.46,-3.69 4.92,-4.92 8.61,-4.92l538.8 0c4.93,0 9.85,2.46 12.31,7.38 1.23,2.46 2.46,4.92 2.46,7.38 -1.23,2.46 -2.46,4.92 -3.69,7.38 -119.33,172.22 -297.7,430.55 -536.34,774.99 -3.69,4.92 -3.69,9.84 -1.23,14.76 2.46,4.92 6.15,7.38 12.3,7.38l485.9 0c3.69,0 7.38,1.23 9.84,3.69 2.46,2.46 3.69,4.92 3.69,9.84l0 43.06c0,3.69 -1.23,7.38 -3.69,11.07 -2.46,2.46 -4.92,3.69 -8.61,3.69z"/>
  <path class="fil2" d="M3253.11 1486.33l0 74.17 39.94 0 0 11.41c0,3.21 -1.07,5.7 -2.86,7.84 -2.49,2.5 -4.99,3.57 -8.2,3.57l-28.88 0 0 76.31c0.35,14.26 5.7,26.74 16.04,36.73 10.34,10.34 22.47,15.33 37.09,15.33 2.85,0.36 5.35,1.43 7.49,3.57 2.14,2.14 3.21,4.63 3.21,7.84l0 7.13c0,1.07 -0.36,1.79 -1.07,2.5 -0.72,0.71 -1.43,1.07 -2.5,1.07l-7.13 0c-20.33,-0.36 -37.8,-7.49 -52.06,-22.11 -14.62,-14.26 -22.11,-31.73 -22.47,-51.7l0 -76.67 -37.08 0 0 -10.7c0,-2.49 0.71,-4.63 1.78,-6.77 1.43,-2.14 3.21,-3.93 5.35,-4.64 1.07,-0.36 2.49,-0.71 3.56,-0.71l26.39 0 0 -84.87 10.7 0c2.85,0 5.35,1.07 7.49,3.21 2.14,2.14 3.21,4.64 3.21,7.49zm98.06 225.36l0 17.83c0,1.07 -0.35,1.78 -1.07,2.5 -0.71,0.71 -1.42,1.07 -2.49,1.07l-14.62 0c-1.07,0 -1.79,-0.36 -2.5,-1.07 -0.71,-0.72 -1.07,-1.43 -1.07,-2.5l0 -71.32c0,-19.25 6.42,-36.01 19.26,-49.92 13.19,-13.91 28.88,-22.11 47.42,-23.89l0.72 0c0.71,0 1.42,0.36 2.14,0.71 0.71,0.72 1.06,1.43 1.06,2.5l0 14.62c0,0.71 -0.35,1.43 -0.71,2.14 -0.71,0.71 -1.42,1.07 -2.49,1.07 -12.84,1.78 -23.9,7.49 -32.81,17.47 -8.92,9.99 -13.19,21.75 -13.19,35.3l0 53.49 0.35 0zm218.23 -51.35l0 69.89c0,1.07 -0.36,2.14 -1.07,2.5 -0.71,0.71 -1.42,1.07 -2.49,1.07l-69.9 0c-19.96,0 -37.08,-7.13 -52.06,-21.04 -14.97,-13.91 -22.82,-30.67 -23.53,-50.28l0 -2.85c0,-13.19 3.21,-24.96 9.27,-36.02 6.42,-11.76 15.69,-21.03 26.74,-27.81 6.06,-3.57 12.48,-6.42 19.62,-8.2 6.06,-1.78 12.12,-2.5 18.54,-2.5l3.21 0c19.61,1.07 36.37,8.92 50.28,23.54 14.26,14.97 21.39,32.09 21.39,51.7zm-21.39 48.86l0 -48.86c0,-14.26 -5,-26.74 -14.62,-37.08 -9.99,-10.7 -22.11,-16.41 -36.73,-16.76l-1.43 0c-14.62,0 -27.46,5.35 -37.8,15.69 -10.34,10.34 -15.69,22.82 -15.69,37.44l0 1.78c0.36,14.27 6.06,26.39 16.41,36.37 10.69,9.99 23.17,14.98 37.44,14.98l49.21 0c0.71,0 1.42,-0.36 2.14,-1.07 0.71,-0.71 1.07,-1.42 1.07,-2.49zm175.44 -50.28l0 70.96c0,1.07 -0.36,2.14 -0.71,2.85 -0.72,0.36 -1.43,0.71 -2.5,0.71 -2.85,0.36 -6.78,0.36 -12.48,0.36 -1.07,0 -1.78,-0.36 -2.5,-1.07 -0.71,-0.71 -1.07,-1.43 -1.07,-2.5l0 -70.96c0,-14.62 -4.63,-27.1 -13.9,-37.44 -9.28,-10.34 -20.69,-15.69 -33.88,-15.69 -13.19,0 -24.6,5.35 -33.88,15.69 -9.27,10.34 -13.9,22.82 -13.9,37.44l0 72.03c-0.36,0.72 -1.07,1.43 -1.43,1.79 -0.36,0.35 -1.07,0.35 -1.78,0.35l-12.48 0c-1.07,0 -1.79,-0.35 -2.5,-0.71 -0.71,-0.71 -1.07,-1.78 -1.07,-2.85l0 -70.96c0,-20.33 6.42,-37.8 19.61,-52.42 13.2,-14.62 28.89,-21.75 47.43,-21.75 18.54,0 34.23,7.13 47.07,21.75 13.19,14.62 19.97,32.09 19.97,52.42zm56.34 74.88c-7.14,0 -13.91,-1.07 -21.04,-3.21 -6.78,-2.14 -13.55,-4.99 -20.33,-8.91 -1.42,-0.72 -2.14,-1.79 -2.49,-2.86 -0.36,-0.71 -0.36,-1.42 -0.36,-1.78 0.36,-0.36 0.36,-1.07 1.07,-1.78 1.43,-2.14 3.56,-5.35 6.06,-9.99 0.71,-0.71 1.78,-1.42 2.85,-1.42 1.07,-0.36 2.14,-0.36 3.21,0.35 11.06,6.42 20.68,9.63 28.89,9.27 8.2,-0.35 15.33,-1.42 21.39,-3.92 5.71,-2.14 8.56,-6.06 8.92,-12.48 0,-6.42 -0.72,-11.41 -2.14,-15.69 -1.07,-3.56 -5.71,-7.13 -13.55,-11.05 -7.85,-4.28 -14.62,-7.85 -20.69,-10.34 -3.92,-2.14 -7.84,-3.93 -11.76,-5.71 -3.93,-1.78 -7.13,-3.56 -9.63,-5.7 -4.64,-2.86 -7.85,-6.78 -9.99,-11.42 -2.49,-4.63 -3.56,-9.62 -3.56,-15.69 0,-3.56 0.36,-6.77 1.07,-9.27 0.71,-2.85 1.07,-4.63 1.42,-5.35 1.07,-3.92 5,-8.55 10.7,-14.26 5.71,-5.35 14.62,-8.56 26.03,-9.63 2.14,-0.35 4.28,-0.35 6.42,-0.35 7.13,0 13.91,1.07 19.61,3.56 7.49,2.86 12.48,5.71 16.05,7.85 1.43,0.71 1.78,1.78 1.78,3.21 0.36,1.07 0,2.14 -0.71,3.21 -0.71,0.71 -2.14,2.14 -3.92,3.92 -0.72,1.42 -2.14,2.85 -3.92,4.99 -0.72,0.71 -1.43,1.07 -2.5,1.43 -1.07,0 -1.78,-0.36 -2.85,-0.72 -2.5,-1.42 -6.42,-3.21 -11.06,-5.34 -4.99,-1.79 -10.7,-2.5 -17.11,-1.79 -7.49,0.72 -12.48,2.5 -14.98,5.35 -2.85,2.85 -4.64,7.13 -6.06,13.19 -0.72,4.64 1.07,8.56 4.99,11.42 2.14,1.07 4.64,2.85 8.2,4.27 3.21,1.79 6.78,3.21 10.7,5 9.63,4.63 18.9,9.62 27.46,14.62 8.91,4.99 14.62,11.41 17.11,18.9 2.14,6.77 3.57,13.19 3.57,18.9 0,4.99 -1.07,9.62 -2.5,14.26 -3.56,9.98 -10.34,16.76 -19.97,20.32 -4.63,1.43 -9.27,2.5 -13.55,3.57 -4.28,0.71 -8.56,1.07 -12.83,1.07zm213.94 -72.74c-0.35,21.03 -7.84,38.86 -22.82,53.48 -14.97,14.62 -33.16,22.11 -53.84,22.11l-50.64 0c-1.07,0 -1.78,0.36 -2.49,1.07 -0.72,0.36 -1.07,1.43 -1.07,2.5l0 89.86c0,2.85 -0.72,5.35 -2.86,7.49 -1.78,2.14 -3.92,3.21 -6.77,3.56l-11.77 0 0 -180.07c0,-21.04 7.13,-38.87 21.75,-54.21 14.62,-14.97 32.45,-22.46 53.85,-22.82l0.71 0c21.04,-0.35 38.87,7.13 53.85,22.11 14.62,14.98 22.1,33.16 22.1,54.2l0 0.72zm-76.66 -55.63c-15.34,0.35 -28.17,5.7 -38.51,16.76 -10.34,11.05 -15.69,23.89 -15.69,38.87l0 50.27c0,1.07 0.35,2.14 1.07,2.86 0.71,0.71 1.78,1.07 2.85,1.07l50.99 0c14.98,0 27.81,-5.35 38.51,-16.05 10.7,-10.7 16.05,-23.89 16.05,-38.87 0,-15.33 -5.35,-28.52 -16.4,-38.87 -10.7,-10.69 -23.54,-16.04 -38.52,-16.04l-0.35 0zm168.67 128.01c-20.68,0 -38.16,-7.48 -52.78,-22.11 -14.62,-14.62 -21.75,-32.09 -21.75,-52.41 0,-20.69 7.13,-38.16 21.75,-52.78 14.62,-14.62 32.1,-21.75 52.78,-21.75 20.32,0 37.8,7.13 52.42,21.75 14.62,14.62 22.11,32.45 22.11,52.78 0,20.32 -7.49,37.79 -22.11,52.41 -14.27,14.63 -31.74,22.11 -52.42,22.11zm0 -128.01c-14.98,0 -27.82,5.35 -38.16,15.69 -10.34,10.34 -15.69,22.82 -15.69,37.8 0,14.62 5.35,27.1 16.05,37.79 10.34,10.35 23.18,15.69 37.8,15.69 14.62,0 27.46,-5.34 37.8,-15.69 10.34,-10.69 15.69,-23.17 15.69,-37.79 0,-14.98 -5.35,-27.46 -15.69,-37.8 -10.34,-10.34 -23.18,-15.69 -37.8,-15.69zm115.89 106.26l0 17.83c0,1.07 -0.35,1.78 -1.07,2.5 -0.71,0.71 -1.42,1.07 -2.49,1.07l-14.62 0c-1.07,0 -1.79,-0.36 -2.5,-1.07 -0.71,-0.72 -1.07,-1.43 -1.07,-2.5l0 -71.32c0,-19.25 6.42,-36.01 19.26,-49.92 13.19,-13.91 28.88,-22.11 47.42,-23.89l0.72 0c0.71,0 1.42,0.36 2.14,0.71 0.71,0.72 1.06,1.43 1.06,2.5l0 14.62c0,0.71 -0.35,1.43 -0.71,2.14 -0.71,0.71 -1.42,1.07 -2.49,1.07 -12.84,1.78 -23.9,7.49 -32.81,17.47 -8.92,9.99 -13.19,21.75 -13.19,35.3l0 53.49 0.35 0zm116.25 -225.36l0 74.17 39.94 0 0 11.41c0,3.21 -1.07,5.7 -2.86,7.84 -2.49,2.5 -4.99,3.57 -8.2,3.57l-28.88 0 0 76.31c0.35,14.26 5.7,26.74 16.04,36.73 10.34,10.34 22.47,15.33 37.09,15.33 2.85,0.36 5.35,1.43 7.49,3.57 2.14,2.14 3.21,4.63 3.21,7.84l0 7.13c0,1.07 -0.36,1.79 -1.07,2.5 -0.72,0.71 -1.43,1.07 -2.5,1.07l-7.13 0c-20.33,-0.36 -37.8,-7.49 -52.06,-22.11 -14.62,-14.26 -22.11,-31.73 -22.47,-51.7l0 -76.67 -37.08 0 0 -10.7c0,-2.49 0.71,-4.63 1.78,-6.77 1.43,-2.14 3.21,-3.93 5.35,-4.64 1.07,-0.36 2.49,-0.71 3.56,-0.71l26.39 0 0 -84.87 10.7 0c2.85,0 5.35,1.07 7.49,3.21 2.14,2.14 3.21,4.64 3.21,7.49zm190.78 2.85l0 171.16c0.35,14.27 5.35,26.39 15.69,36.37 10.34,10.35 22.46,15.34 36.72,15.69 2.86,0 5.35,1.07 7.14,3.21 2.14,2.14 3.21,4.64 3.21,7.14l0 7.48c0,1.07 -0.36,1.79 -0.72,2.5 -0.71,0.71 -1.78,1.07 -2.85,1.07l-6.78 0c-20.32,-0.36 -37.44,-7.49 -51.7,-21.75 -14.62,-14.27 -21.75,-31.38 -22.11,-51.35l0 -182.22 10.7 0c2.85,0 5.35,1.07 7.49,3.21 2.14,2.14 3.21,4.64 3.21,7.49zm144.77 244.26c-20.68,0 -38.16,-7.48 -52.78,-22.11 -14.62,-14.62 -21.75,-32.09 -21.75,-52.41 0,-20.69 7.13,-38.16 21.75,-52.78 14.62,-14.62 32.1,-21.75 52.78,-21.75 20.32,0 37.8,7.13 52.42,21.75 14.62,14.62 22.11,32.45 22.11,52.78 0,20.32 -7.49,37.79 -22.11,52.41 -14.27,14.63 -31.74,22.11 -52.42,22.11zm0 -128.01c-14.98,0 -27.82,5.35 -38.16,15.69 -10.34,10.34 -15.69,22.82 -15.69,37.8 0,14.62 5.35,27.1 16.05,37.79 10.34,10.35 23.18,15.69 37.8,15.69 14.62,0 27.46,-5.34 37.8,-15.69 10.34,-10.69 15.69,-23.17 15.69,-37.79 0,-14.98 -5.35,-27.46 -15.69,-37.8 -10.34,-10.34 -23.18,-15.69 -37.8,-15.69zm110.54 159.04c1.07,0 1.79,0.35 2.5,1.07 0.71,0.71 1.07,1.42 1.07,1.78 0.71,14.26 6.06,26.03 16.4,36.01 10.34,9.63 22.47,14.62 36.73,14.62 14.62,0 27.1,-4.99 37.44,-15.33 10.34,-10.34 15.34,-23.18 15.34,-37.8l0 -31.73 -52.07 0c-20.32,0 -37.79,-7.13 -52.77,-21.76 -14.98,-13.9 -22.47,-31.37 -22.82,-51.34l0 -1.07c0,-20.33 7.49,-37.8 22.11,-52.42 14.26,-14.62 31.73,-21.75 52.41,-21.4l0.72 0c19.97,0 37.44,7.49 51.7,22.11 14.62,14.98 21.75,32.45 21.75,52.78l0 104.12c0,20.33 -7.48,38.15 -22.1,53.13 -14.27,14.62 -31.74,22.11 -52.07,22.11l-0.35 0c-19.97,-0.36 -37.09,-7.13 -51.35,-21.04 -14.26,-13.55 -21.75,-30.31 -22.82,-50.28 0,-1.07 0.35,-1.78 1.07,-2.49 0.71,-0.72 1.42,-0.72 2.49,-0.72 3.21,-0.35 8.21,-0.35 14.62,-0.35zm109.48 -104.13c0,-14.97 -5,-27.45 -15.34,-37.8 -10.34,-10.69 -22.82,-16.04 -37.44,-16.04 -14.62,0 -27.46,5.35 -37.8,15.69 -10.34,10.34 -15.69,22.82 -15.69,37.44 0.36,14.62 5.71,27.1 16.05,37.44 10.7,10.34 23.18,15.33 37.8,15.33l48.85 0c1.07,0 1.78,-0.35 2.5,-1.07 0.71,-0.71 1.07,-1.42 1.07,-2.49l0 -48.5zm54.91 -98.42l-14.62 0 0 -14.62c0,-4.27 1.43,-7.84 4.28,-10.34 2.86,-2.85 6.06,-4.28 10.34,-4.28 3.93,0 7.49,1.43 10.34,4.28 2.86,2.86 4.28,6.42 4.28,10.34 0,3.93 -1.42,7.14 -4.28,9.99 -2.49,3.21 -6.06,4.63 -10.34,4.63zm-10.34 170.81c-1.07,0 -1.78,-0.36 -2.49,-0.71 -0.36,-0.72 -0.72,-1.43 -0.72,-2.5l0 -143.7c0,-1.07 0.36,-1.79 1.07,-2.5 0.72,-0.71 1.43,-1.07 2.5,-1.07l14.26 0c1.07,0 1.79,0.36 2.5,1.07 0.71,0.71 1.07,1.43 1.07,2.5l0 143.7c0,1.07 -0.36,1.78 -1.07,2.5 -0.36,0.35 -1.07,0.71 -2.14,0.71l-14.98 0zm80.24 1.07c-7.14,0 -13.91,-1.07 -21.04,-3.21 -6.78,-2.14 -13.55,-4.99 -20.33,-8.91 -1.42,-0.72 -2.14,-1.79 -2.49,-2.86 -0.36,-0.71 -0.36,-1.42 -0.36,-1.78 0.36,-0.36 0.36,-1.07 1.07,-1.78 1.43,-2.14 3.56,-5.35 6.06,-9.99 0.71,-0.71 1.78,-1.42 2.85,-1.42 1.07,-0.36 2.14,-0.36 3.21,0.35 11.06,6.42 20.68,9.63 28.89,9.27 8.2,-0.35 15.33,-1.42 21.39,-3.92 5.71,-2.14 8.56,-6.06 8.92,-12.48 0,-6.42 -0.72,-11.41 -2.14,-15.69 -1.07,-3.56 -5.71,-7.13 -13.55,-11.05 -7.85,-4.28 -14.62,-7.85 -20.69,-10.34 -3.92,-2.14 -7.84,-3.93 -11.76,-5.71 -3.93,-1.78 -7.13,-3.56 -9.63,-5.7 -4.64,-2.86 -7.85,-6.78 -9.99,-11.42 -2.49,-4.63 -3.56,-9.62 -3.56,-15.69 0,-3.56 0.36,-6.77 1.07,-9.27 0.71,-2.85 1.07,-4.63 1.42,-5.35 1.07,-3.92 5,-8.55 10.7,-14.26 5.71,-5.35 14.62,-8.56 26.03,-9.63 2.14,-0.35 4.28,-0.35 6.42,-0.35 7.13,0 13.91,1.07 19.61,3.56 7.49,2.86 12.48,5.71 16.05,7.85 1.43,0.71 1.78,1.78 1.78,3.21 0.36,1.07 0,2.14 -0.71,3.21 -0.71,0.71 -2.14,2.14 -3.92,3.92 -0.72,1.42 -2.14,2.85 -3.92,4.99 -0.72,0.71 -1.43,1.07 -2.5,1.43 -1.07,0 -1.78,-0.36 -2.85,-0.72 -2.5,-1.42 -6.42,-3.21 -11.06,-5.34 -4.99,-1.79 -10.7,-2.5 -17.11,-1.79 -7.49,0.72 -12.48,2.5 -14.98,5.35 -2.85,2.85 -4.64,7.13 -6.06,13.19 -0.72,4.64 1.07,8.56 4.99,11.42 2.14,1.07 4.64,2.85 8.2,4.27 3.21,1.79 6.78,3.21 10.7,5 9.63,4.63 18.9,9.62 27.46,14.62 8.91,4.99 14.62,11.41 17.11,18.9 2.14,6.77 3.57,13.19 3.57,18.9 0,4.99 -1.07,9.62 -2.5,14.26 -3.56,9.98 -10.34,16.76 -19.97,20.32 -4.63,1.43 -9.27,2.5 -13.55,3.57 -4.28,0.71 -8.56,1.07 -12.83,1.07zm109.11 -247.47l0 74.17 39.94 0 0 11.41c0,3.21 -1.07,5.7 -2.86,7.84 -2.49,2.5 -4.99,3.57 -8.2,3.57l-28.88 0 0 76.31c0.35,14.26 5.7,26.74 16.04,36.73 10.34,10.34 22.47,15.33 37.09,15.33 2.85,0.36 5.35,1.43 7.49,3.57 2.14,2.14 3.21,4.63 3.21,7.84l0 7.13c0,1.07 -0.36,1.79 -1.07,2.5 -0.72,0.71 -1.43,1.07 -2.5,1.07l-7.13 0c-20.33,-0.36 -37.8,-7.49 -52.06,-22.11 -14.62,-14.26 -22.11,-31.73 -22.47,-51.7l0 -76.67 -37.08 0 0 -10.7c0,-2.49 0.71,-4.63 1.78,-6.77 1.43,-2.14 3.21,-3.93 5.35,-4.64 1.07,-0.36 2.49,-0.71 3.56,-0.71l26.39 0 0 -84.87 10.7 0c2.85,0 5.35,1.07 7.49,3.21 2.14,2.14 3.21,4.64 3.21,7.49zm92.71 75.59l-14.62 0 0 -14.62c0,-4.27 1.43,-7.84 4.28,-10.34 2.86,-2.85 6.06,-4.28 10.34,-4.28 3.93,0 7.49,1.43 10.34,4.28 2.86,2.86 4.28,6.42 4.28,10.34 0,3.93 -1.42,7.14 -4.28,9.99 -2.49,3.21 -6.06,4.63 -10.34,4.63zm-10.34 170.81c-1.07,0 -1.78,-0.36 -2.49,-0.71 -0.36,-0.72 -0.72,-1.43 -0.72,-2.5l0 -143.7c0,-1.07 0.36,-1.79 1.07,-2.5 0.72,-0.71 1.43,-1.07 2.5,-1.07l14.26 0c1.07,0 1.79,0.36 2.5,1.07 0.71,0.71 1.07,1.43 1.07,2.5l0 143.7c0,1.07 -0.36,1.78 -1.07,2.5 -0.36,0.35 -1.07,0.71 -2.14,0.71l-14.98 0zm149.06 -29.95c1.07,0.71 2.14,1.78 3.92,3.21 1.78,1.42 3.21,2.49 3.92,3.21 0.72,0.71 1.79,1.78 2.86,2.49 1.06,0.71 1.42,1.78 1.42,2.85 0,1.07 -0.36,1.79 -1.42,2.5 -5.71,4.64 -11.77,8.2 -18.19,10.7 -6.78,2.49 -13.55,4.28 -20.68,4.99 -2.14,0.36 -4.64,0.36 -6.78,0.36 -10.7,0 -21.04,-2.5 -31.02,-7.13 -12.84,-5.35 -23.54,-14.27 -31.74,-27.11 -7.13,-10.34 -11.41,-22.1 -12.12,-34.58 -0.36,-2.14 -0.36,-3.93 -0.36,-5.71 0,-10.7 2.14,-21.04 7.13,-31.02 6.78,-14.27 16.41,-25.32 28.89,-32.81 12.48,-7.13 25.31,-10.7 39.22,-11.05l0.36 0c7.13,0 14.26,1.07 21.04,3.21 7.13,2.14 13.9,5.34 20.32,9.62 0,0.36 0.36,0.36 0.36,0.72 0,0.35 -0.36,0.35 -0.36,0.71 -2.49,2.14 -4.63,4.64 -7.13,6.78l-6.77 6.77c-0.72,0.36 -1.07,0.36 -1.07,0 -13.55,-7.13 -27.82,-8.2 -42.79,-3.57 -15.34,5 -26.39,15.69 -33.17,31.74 -2.85,7.13 -3.92,14.62 -3.56,22.47 0.35,7.48 2.49,14.62 6.42,21.39 8.55,15.33 20.32,24.25 35.65,27.1 15.69,3.21 29.6,0.36 41.37,-7.84 0.71,-0.36 1.42,-0.72 2.14,-0.72 0.71,0 1.42,0.36 2.14,0.72zm66.68 31.02c-7.14,0 -13.91,-1.07 -21.04,-3.21 -6.78,-2.14 -13.55,-4.99 -20.33,-8.91 -1.42,-0.72 -2.14,-1.79 -2.49,-2.86 -0.36,-0.71 -0.36,-1.42 -0.36,-1.78 0.36,-0.36 0.36,-1.07 1.07,-1.78 1.43,-2.14 3.56,-5.35 6.06,-9.99 0.71,-0.71 1.78,-1.42 2.85,-1.42 1.07,-0.36 2.14,-0.36 3.21,0.35 11.06,6.42 20.68,9.63 28.89,9.27 8.2,-0.35 15.33,-1.42 21.39,-3.92 5.71,-2.14 8.56,-6.06 8.92,-12.48 0,-6.42 -0.72,-11.41 -2.14,-15.69 -1.07,-3.56 -5.71,-7.13 -13.55,-11.05 -7.85,-4.28 -14.62,-7.85 -20.69,-10.34 -3.92,-2.14 -7.84,-3.93 -11.76,-5.71 -3.93,-1.78 -7.13,-3.56 -9.63,-5.7 -4.64,-2.86 -7.85,-6.78 -9.99,-11.42 -2.49,-4.63 -3.56,-9.62 -3.56,-15.69 0,-3.56 0.36,-6.77 1.07,-9.27 0.71,-2.85 1.07,-4.63 1.42,-5.35 1.07,-3.92 5,-8.55 10.7,-14.26 5.71,-5.35 14.62,-8.56 26.03,-9.63 2.14,-0.35 4.28,-0.35 6.42,-0.35 7.13,0 13.91,1.07 19.61,3.56 7.49,2.86 12.48,5.71 16.05,7.85 1.43,0.71 1.78,1.78 1.78,3.21 0.36,1.07 0,2.14 -0.71,3.21 -0.71,0.71 -2.14,2.14 -3.92,3.92 -0.72,1.42 -2.14,2.85 -3.92,4.99 -0.72,0.71 -1.43,1.07 -2.5,1.43 -1.07,0 -1.78,-0.36 -2.85,-0.72 -2.5,-1.42 -6.42,-3.21 -11.06,-5.34 -4.99,-1.79 -10.7,-2.5 -17.11,-1.79 -7.49,0.72 -12.48,2.5 -14.98,5.35 -2.85,2.85 -4.64,7.13 -6.06,13.19 -0.72,4.64 1.07,8.56 4.99,11.42 2.14,1.07 4.64,2.85 8.2,4.27 3.21,1.79 6.78,3.21 10.7,5 9.63,4.63 18.9,9.62 27.46,14.62 8.91,4.99 14.62,11.41 17.11,18.9 2.14,6.77 3.57,13.19 3.57,18.9 0,4.99 -1.07,9.62 -2.5,14.26 -3.56,9.98 -10.34,16.76 -19.97,20.32 -4.63,1.43 -9.27,2.5 -13.55,3.57 -4.28,0.71 -8.56,1.07 -12.83,1.07z"/>
 </g>
</svg>
